# xmcd
#
# Track frame offsets:
# 150
# 19115
# 39486
# 56567
# 78300
# 102300
# 131437
# 155693
# 183293
# 195809
#
# Disc length: 3381 seconds
#
# Revision: 1
# Processed by: cddbd v1.5.2PL0 Copyright (c) Steve Scherf et al.
# Submitted via: CedeCatalogueitor 2.6.0.6 http://personales.ya.com/cdcatalogueitor
#
DISCID=740d330a
DTITLE=Text Adventure - I Believe In Lassies
DYEAR=1900
DGENRE=
TTITLE0=Pink Smoke
TTITLE1=If It Could Talk, It Wouldn't Say Anything
TTITLE2=I'm Losing My Reflection
TTITLE3=Boobook (for R)
TTITLE4=Saturday Morning Cartoons
TTITLE5=Cowboy Shadows
TTITLE6=Nothing Is Wrong
TTITLE7=I Might Be Silly
TTITLE8=Sunset In The Silver Forest
TTITLE9=I Believe In Lassies
EXTD=
EXTT0=
EXTT1=
EXTT2=
EXTT3=
EXTT4=
EXTT5=
EXTT6=
EXTT7=
EXTT8=
EXTT9=
PLAYORDER=
